{
  "accessors": [
    {
      "bufferView": 2,
      "componentType": 5126,
      "count": 40843,
      "max": [
        1.596019983291626,
        0.57625001668930054,
        4.7776398658752441
      ],
      "min": [
        -1.8081099987030029,
        -0.55659002065658569,
        0.0053099999204277992
      ],
      "type": "VEC3"
    },
    {
      "bufferView": 2,
      "byteOffset": 490116,
      "componentType": 5126,
      "count": 40843,
      "max": [
        0.99995201826095581,
        1,
        1
      ],
      "min": [
        -0.99997681379318237,
        -1,
        -1
      ],
      "type": "VEC3"
    },
    {
      "bufferView": 3,
      "componentType": 5126,
      "count": 40843,
      "max": [
        0.99999922513961792,
        0.99998694658279419,
        0.99997270107269287,
        1
      ],
      "min": [
        -0.99996435642242432,
        -0.99998265504837036,
        -0.99997180700302124,
        -1
      ],
      "type": "VEC4"
    },
    {
      "bufferView": 1,
      "componentType": 5126,
      "count": 40843,
      "max": [
        1.0000499486923218,
        0.99883002042770386
      ],
      "min": [
        0.0009899999713525176,
        0.001610000035725534
      ],
      "type": "VEC2"
    },
    {
      "bufferView": 0,
      "componentType": 5125,
      "count": 201228,
      "max": [
        40842
      ],
      "min": [
        0
      ],
      "type": "SCALAR"
    },
    {
      "bufferView": 2,
      "byteOffset": 980232,
      "componentType": 5126,
      "count": 913,
      "max": [
        1.4291700124740601,
        0.5153999924659729,
        4.5064802169799805
      ],
      "min": [
        -1.7198300361633301,
        -0.50461000204086304,
        1.3695000410079956
      ],
      "type": "VEC3"
    },
    {
      "bufferView": 2,
      "byteOffset": 991188,
      "componentType": 5126,
      "count": 913,
      "max": [
        0.98957169055938721,
        0.99667221307754517,
        0.96442025899887085
      ],
      "min": [
        -0.98957169055938721,
        -0.99993598461151123,
        -0.99674201011657715
      ],
      "type": "VEC3"
    },
    {
      "bufferView": 1,
      "byteOffset": 326744,
      "componentType": 5126,
      "count": 913,
      "max": [
        0.94765001535415649,
        0.9699699878692627
      ],
      "min": [
        0.55633002519607544,
        0.054620001465082169
      ],
      "type": "VEC2"
    },
    {
      "bufferView": 0,
      "byteOffset": 804912,
      "componentType": 5125,
      "count": 3102,
      "max": [
        912
      ],
      "min": [
        0
      ],
      "type": "SCALAR"
    }
  ],
  "asset": {
    "extras": {
      "author": "procyonlotor (https://sketchfab.com/procyonlotor)",
      "license": "CC-BY-4.0 (http://creativecommons.org/licenses/by/4.0/)",
      "source": "https://sketchfab.com/3d-models/samus-3e8141803fc547909e4d68599a18532a",
      "title": "Samus"
    },
    "generator": "Sketchfab-8.72.3",
    "version": "2.0"
  },
  "bufferViews": [
    {
      "buffer": 0,
      "byteLength": 817320,
      "byteOffset": 0,
      "name": "floatBufferViews",
      "target": 34963
    },
    {
      "buffer": 0,
      "byteLength": 334048,
      "byteOffset": 817320,
      "byteStride": 8,
      "name": "floatBufferViews",
      "target": 34962
    },
    {
      "buffer": 0,
      "byteLength": 1002144,
      "byteOffset": 1151368,
      "byteStride": 12,
      "name": "floatBufferViews",
      "target": 34962
    },
    {
      "buffer": 0,
      "byteLength": 653488,
      "byteOffset": 2153512,
      "byteStride": 16,
      "name": "floatBufferViews",
      "target": 34962
    }
  ],
  "buffers": [
    {
      "byteLength": 2807000,
      "uri": "scene.bin"
    }
  ],
  "images": [
    {
      "uri": "textures/base_baseColor.png"
    },
    {
      "uri": "textures/base_metallicRoughness.png"
    },
    {
      "uri": "textures/base_normal.png"
    }
  ],
  "materials": [
    {
      "doubleSided": true,
      "name": "base",
      "normalTexture": {
        "index": 2,
        "scale": 0.28139801421544486,
        "texCoord": 0
      },
      "pbrMetallicRoughness": {
        "baseColorFactor": [
          0.62796788452535135,
          0.62796788452535135,
          0.62796788452535135,
          1
        ],
        "baseColorTexture": {
          "index": 0,
          "texCoord": 0
        },
        "metallicFactor": 0,
        "metallicRoughnessTexture": {
          "index": 1,
          "texCoord": 0
        },
        "roughnessFactor": 1
      }
    },
    {
      "doubleSided": true,
      "emissiveFactor": [
        0.1381451790804501,
        1,
        1
      ],
      "name": "emission",
      "pbrMetallicRoughness": {
        "baseColorFactor": [
          1,
          1,
          1,
          1
        ],
        "metallicFactor": 1,
        "roughnessFactor": 0.59999999999999998
      }
    }
  ],
  "meshes": [
    {
      "name": "samus_0",
      "primitives": [
        {
          "attributes": {
            "NORMAL": 1,
            "POSITION": 0,
            "TANGENT": 2,
            "TEXCOORD_0": 3
          },
          "indices": 4,
          "material": 0,
          "mode": 4
        }
      ]
    },
    {
      "name": "samus_1",
      "primitives": [
        {
          "attributes": {
            "NORMAL": 6,
            "POSITION": 5,
            "TEXCOORD_0": 7
          },
          "indices": 8,
          "material": 1,
          "mode": 4
        }
      ]
    }
  ],
  "nodes": [
    {
      "children": [
        1
      ],
      "name": "RootNode (gltf orientation matrix)",
      "rotation": [
        -0.70710678118654746,
        -0,
        -0,
        0.70710678118654757
      ]
    },
    {
      "children": [
        2
      ],
      "name": "RootNode (model correction matrix)"
    },
    {
      "children": [
        3
      ],
      "name": "Root"
    },
    {
      "children": [
        4,
        5
      ],
      "name": "samus"
    },
    {
      "mesh": 0,
      "name": "samus_0"
    },
    {
      "mesh": 1,
      "name": "samus_1"
    }
  ],
  "samplers": [
    {
      "magFilter": 9729,
      "minFilter": 9987,
      "wrapS": 10497,
      "wrapT": 10497
    }
  ],
  "scene": 0,
  "scenes": [
    {
      "name": "OSG_Scene",
      "nodes": [
        0
      ]
    }
  ],
  "textures": [
    {
      "sampler": 0,
      "source": 0
    },
    {
      "sampler": 0,
      "source": 1
    },
    {
      "sampler": 0,
      "source": 2
    }
  ]
}

