{
    "asset" : {
        "generator" : "Khronos glTF Blender I/O v1.7.33",
        "version" : "2.0"
    },
    "scene" : 0,
    "scenes" : [
        {
            "name" : "Scene",
            "nodes" : [
                4
            ]
        }
    ],
    "nodes" : [
        {
            "mesh" : 0,
            "name" : "samus_0"
        },
        {
            "children" : [
                0
            ],
            "name" : "samus"
        },
        {
            "children" : [
                1
            ],
            "name" : "Root"
        },
        {
            "children" : [
                2
            ],
            "name" : "RootNode (model correction matrix)"
        },
        {
            "children" : [
                3
            ],
            "name" : "RootNode (gltf orientation matrix)",
            "rotation" : [
                -0.7071068286895752,
                0,
                0,
                0.7071068286895752
            ]
        }
    ],
    "materials" : [
        {
            "doubleSided" : true,
            "emissiveFactor" : [
                1,
                1,
                1
            ],
            "emissiveTexture" : {
                "index" : 0
            },
            "name" : "base.001",
            "normalTexture" : {
                "index" : 1,
                "scale" : 0.2813980281352997
            },
            "pbrMetallicRoughness" : {
                "baseColorFactor" : [
                    0.627967894077301,
                    0.627967894077301,
                    0.627967894077301,
                    1
                ],
                "baseColorTexture" : {
                    "index" : 2
                },
                "metallicFactor" : 0,
                "metallicRoughnessTexture" : {
                    "index" : 3
                }
            }
        }
    ],
    "meshes" : [
        {
            "name" : "samus_0.001",
            "primitives" : [
                {
                    "attributes" : {
                        "POSITION" : 0,
                        "NORMAL" : 1,
                        "TEXCOORD_0" : 2
                    },
                    "indices" : 3,
                    "material" : 0
                },
                {
                    "attributes" : {
                        "POSITION" : 4,
                        "NORMAL" : 5,
                        "TEXCOORD_0" : 6
                    },
                    "indices" : 7
                }
            ]
        }
    ],
    "textures" : [
        {
            "sampler" : 0,
            "source" : 0
        },
        {
            "sampler" : 0,
            "source" : 1
        },
        {
            "sampler" : 0,
            "source" : 2
        },
        {
            "sampler" : 0,
            "source" : 3
        }
    ],
    "images" : [
        {
            "mimeType" : "image/png",
            "name" : "emission",
            "uri" : "emission.png"
        },
        {
            "mimeType" : "image/png",
            "name" : "base_normal",
            "uri" : "base_normal.png"
        },
        {
            "mimeType" : "image/png",
            "name" : "base_baseColor",
            "uri" : "base_baseColor.png"
        },
        {
            "mimeType" : "image/png",
            "name" : "base_metallicRoughness",
            "uri" : "base_metallicRoughness.png"
        }
    ],
    "accessors" : [
        {
            "bufferView" : 0,
            "componentType" : 5126,
            "count" : 50297,
            "max" : [
                1.596019983291626,
                0.5762500166893005,
                4.777639865875244
            ],
            "min" : [
                -1.808109998703003,
                -0.5565900206565857,
                0.005309999920427799
            ],
            "type" : "VEC3"
        },
        {
            "bufferView" : 1,
            "componentType" : 5126,
            "count" : 50297,
            "type" : "VEC3"
        },
        {
            "bufferView" : 2,
            "componentType" : 5126,
            "count" : 50297,
            "type" : "VEC2"
        },
        {
            "bufferView" : 3,
            "componentType" : 5123,
            "count" : 201228,
            "type" : "SCALAR"
        },
        {
            "bufferView" : 4,
            "componentType" : 5126,
            "count" : 1307,
            "max" : [
                1.42917001247406,
                0.5153999924659729,
                4.5064802169799805
            ],
            "min" : [
                -1.71983003616333,
                -0.504610002040863,
                1.3695000410079956
            ],
            "type" : "VEC3"
        },
        {
            "bufferView" : 5,
            "componentType" : 5126,
            "count" : 1307,
            "type" : "VEC3"
        },
        {
            "bufferView" : 6,
            "componentType" : 5126,
            "count" : 1307,
            "type" : "VEC2"
        },
        {
            "bufferView" : 7,
            "componentType" : 5123,
            "count" : 3102,
            "type" : "SCALAR"
        }
    ],
    "bufferViews" : [
        {
            "buffer" : 0,
            "byteLength" : 603564,
            "byteOffset" : 0
        },
        {
            "buffer" : 0,
            "byteLength" : 603564,
            "byteOffset" : 603564
        },
        {
            "buffer" : 0,
            "byteLength" : 402376,
            "byteOffset" : 1207128
        },
        {
            "buffer" : 0,
            "byteLength" : 402456,
            "byteOffset" : 1609504
        },
        {
            "buffer" : 0,
            "byteLength" : 15684,
            "byteOffset" : 2011960
        },
        {
            "buffer" : 0,
            "byteLength" : 15684,
            "byteOffset" : 2027644
        },
        {
            "buffer" : 0,
            "byteLength" : 10456,
            "byteOffset" : 2043328
        },
        {
            "buffer" : 0,
            "byteLength" : 6204,
            "byteOffset" : 2053784
        }
    ],
    "samplers" : [
        {
            "magFilter" : 9729,
            "minFilter" : 9987
        }
    ],
    "buffers" : [
        {
            "byteLength" : 2059988,
            "uri" : "scene.bin"
        }
    ]
}
